<?xml version="1.0" encoding="iso-8859-1"?>
<!-- Uploaded to: SVG Repo, www.svgrepo.com, Generator: SVG Repo Mixer Tools -->
<!DOCTYPE svg PUBLIC "-//W3C//DTD SVG 1.1//EN" "http://www.w3.org/Graphics/SVG/1.1/DTD/svg11.dtd">
<svg fill="#000000" version="1.1" id="Capa_1" xmlns="http://www.w3.org/2000/svg" xmlns:xlink="http://www.w3.org/1999/xlink" 
	 width="800px" height="800px" viewBox="0 0 496.016 496.016"
	 xml:space="preserve">
<g>
	<g>
		<path d="M216.511,44.22c8.159-6.292,18.083-13.628,29.497-21.812c14.989-10.745,26.05-15.3,32.88-13.538
			c3.479,0.899,6.006,3.473,8.449,8.608c1.942,4.086,0.794,11.891-3.154,21.413c-0.899,2.17,0.129,4.656,2.297,5.555
			c1.639,0.679,3.455,0.257,4.636-0.921c0.383-0.383,0.697-0.846,0.918-1.378c5.081-12.261,6.083-21.789,2.978-28.32
			c-2.226-4.685-6.103-11.151-14-13.188c-9.647-2.488-22.342,2.233-39.958,14.859c-11.493,8.239-21.497,15.638-29.733,21.987
			c-1.867,1.436-2.205,4.104-0.771,5.962C211.984,45.306,214.652,45.652,216.511,44.22z"/>
		<path d="M446.901,81.269c-3.67-9.991-11.042-9.79-16.311-9.526c-3.86,0.194-6.317,0.224-8.082-1.539
			c-2.047-2.046-0.323-11.194,0.938-17.875c2.504-13.277,5.62-29.797-6.583-36.632c-7.82-4.38-14.98-5.514-21.28-3.37
			c-11.847,4.032-17.92,18.227-23.797,31.955c-2.318,5.419-4.523,10.57-6.95,14.786c-14.196,2.779-40.978,2.788-71.793,2.798
			c-8.928,0.003-18.153,0.007-27.456,0.079c-14.987,0.119-27.114,0.396-38.159,0.875c-24.849,1.079-44.035,3.238-58.652,6.603
			c-2.333,0.539-10.815,2.404-16.14,3.959c-2.255,0.659-3.548,3.02-2.889,5.271c0.658,2.254,3.018,3.546,5.271,2.889
			c5.048-1.474,13.298-3.289,15.666-3.833c14.105-3.247,32.787-5.338,57.113-6.395c10.942-0.474,22.971-0.749,37.857-0.868
			c9.281-0.071,18.486-0.075,27.392-0.079c32.641-0.01,70.585-0.624,77.152-3.778c3.408-1.637,6.665-12.562,9.403-18.961
			c5.145-12.018,10.462-24.442,18.721-27.252c3.976-1.353,8.682-0.458,14.387,2.737c6.872,3.849,4.487,16.489,2.386,27.641
			c-2.05,10.862-3.819,20.245,1.409,25.466c4.521,4.515,10.297,4.225,14.513,4.013c5.598-0.28,6.678-0.047,7.748,3.494
			c0.677,2.243,0.579,6.335-1.929,10.486c-2.006,3.322-6.249,8.629-14.595,10.243c-2.897,0.56-30.452,7.405-57.404,15.905
			c-56.168,17.708-56.168,21.039-56.168,24.895c-0.001,5.072,3.857,8.923,7.591,12.646c3.924,3.915,7.635,7.977,8.024,13.217
			c0.423,5.697-1.106,9.108-3.833,11.436c-5.371,4.57-17.311,5.312-35.487,2.201c-17.425-2.981-57.45-12.565-62.708-10.857
			c-14.709,4.777-37.519,10.045-47.563,12.139c-48.247,10.058-83.027,3.09-101.066-7.125c-8.832-5.001-14.376-11.444-16.032-18.634
			c-2.174-9.442-1.542-23.994,6.746-36.51c6.951-10.499,17.636-17.089,31.761-19.582c4.067-0.576,37.456,4.099,67.378,8.952
			c2.316,0.375,4.499-1.201,4.875-3.516c0.376-2.317-1.198-4.499-3.515-4.877c-14.772-2.396-63.489-10.121-70.218-8.933
			c-16.275,2.876-29.203,10.92-37.37,23.259c-9.774,14.763-10.511,31.95-7.942,43.113c2.205,9.575,9.166,17.917,20.128,24.125
			c22.712,12.861,59.369,15.734,101.617,8.874c-0.026,0.341-0.079,0.679-0.083,1.023c-0.068,5.88,3.183,11.06,8.916,14.209
			c2.931,1.61,20.633,5.637,20.894,11.679c0.143,3.343-4.961,8.237-9.703,12.413c-7.391,6.511-15.77,13.89-12.179,23.473
			c3.137,8.363,3.709,14.643,1.702,18.662c-2.508,5.021-9.222,6.998-16.333,9.089c-8.428,2.478-17.98,5.29-20.389,14.625
			c-4.824,18.719,8.605,35.145,34.214,41.849c12.188,3.191,28.386,11.411,33.926,24.076c2.996,6.848,2.404,14.275-1.81,22.178
			c-3.104,6.211-32.809,30.542-35.253,38.896c-4.076,13.938-17.535,12.261-14.657-5.468c0.551-3.394,0.915-7.277,0.116-11.273
			c-1.954-9.759-8.764-12.714-14.772-15.32c-4.366-1.894-8.49-3.685-11.506-8.04l-0.175-0.236c-1-1.25-1.215-4.501-1.406-7.368
			c-0.283-4.275-0.577-8.696-3.172-12.019c-2.674-3.696-6.493-6.158-10.188-8.54c-3.266-2.104-6.354-4.093-7.781-6.47
			c-1.35-2.9-1.516-4.644-1.215-5.312c0.551-1.223,4.03-2.227,6.825-3.032c4.901-1.415,11.002-3.176,14.37-8.469
			c2.053-3.192,1.75-5.857,1.137-7.532c-1.918-5.22-8.797-7.31-18.318-10.201c-12.595-3.826-28.269-8.587-32.17-20.829
			c-4.777-14.987,2.597-24.497,9.103-32.887c5.498-7.089,11.728-15.126,3.904-23.401c-2.493-2.641-6.538-3.992-11.093-3.716
			c-6.685,0.409-13.294,4.207-17.682,10.159c-12.635,17.146-17.117,50.858-17.115,74.519c0,95.997,78.098,174.099,174.096,174.099
			c25.365,0,49.821-5.335,72.688-15.856c21.088-9.702,39.776-23.324,55.544-40.486c19.332-21.042,33.296-46.711,40.38-74.233
			c3.64-14.141,5.484-28.785,5.484-43.522c0-34.886-9.407-67.699-30.094-96.463c0,0-2.678-4.002-6.575-1.049
			c-3.506,2.656-0.794,6.575-0.794,6.575c19.838,27.062,28.962,57.896,28.962,90.936c0,14.024-1.754,27.953-5.216,41.403
			c-6.735,26.173-20.018,50.586-38.406,70.6c-15.001,16.329-32.778,29.285-52.836,38.517
			c-21.745,10.005-45.005,15.077-69.136,15.077c-91.311,0-165.595-74.286-165.595-165.597c-0.001-24.139,4.779-54.981,15.459-69.476
			c2.91-3.948,7.155-6.459,11.355-6.716c2.217-0.137,3.8,0.438,4.396,1.068c2.399,2.538,1.733,4.385-4.447,12.354
			c-7.013,9.043-16.617,21.431-10.482,40.677c5.258,16.494,24.065,22.209,37.799,26.381c4.683,1.423,10.988,3.338,12.605,4.827
			c-0.032,0.057-0.07,0.119-0.115,0.191c-1.654,2.597-5.676,3.757-9.565,4.88c-4.71,1.358-10.051,2.901-12.217,7.706
			c-1.514,3.359-1.072,7.482,1.355,12.607l0.15,0.288c2.422,4.237,6.596,6.928,10.633,9.528c3.193,2.058,6.209,4.001,7.938,6.422
			l0.138,0.184c1,1.251,1.215,4.501,1.406,7.369c0.283,4.265,0.575,8.669,3.151,11.991c4.387,6.269,10.287,8.83,15.033,10.889
			c5.903,2.562,8.787,4.021,9.82,9.19c0.528,2.641,0.168,5.508-0.215,8.547c-0.755,6.007-1.694,13.479,5.167,20.336
			c3.786,3.494,7.582,4.983,11.289,4.424c6.443-0.972,10.278-7.574,13.989-13.962c1.54-2.654,3.135-5.399,4.763-7.434l0.177-0.237
			c3.391-4.899,8.239-8.852,13.372-13.034c6.525-5.317,13.271-10.816,17.143-18.562c5.37-10.068,6.077-20.265,2.044-29.484
			c-6.751-15.435-24.863-25.045-39.562-28.894c-16.419-4.298-32.433-14.832-28.135-31.504c1.123-4.351,6.248-6.148,14.555-8.593
			c8.146-2.397,17.379-5.111,21.541-13.448c3.147-6.306,2.707-14.629-1.348-25.443c-1.425-3.8,3.179-8.245,9.837-14.109
			c6.639-5.847,12.953-11.838,12.417-19.713c-0.825-12.123-22.845-16.953-25.134-18.209c-2.981-1.639-4.167-3.964-4.51-6.661
			c-0.103-0.811-0.108-1.687-0.058-2.589c14.677-2.78,29.941-6.687,45.464-11.729c2.981-0.969,40.951,8.122,58.648,11.15
			c21.362,3.655,34.844,2.35,42.431-4.105c6.213-5.282,7.134-12.736,7.089-17.925c-0.075-8.737-6.131-14.578-10.783-19.222
			c-1.826-1.82-3.837-3.826-4.683-5.359c12.608-7.785,97.936-32.207,106.16-33.804c6.562-1.27,12.388-5.074,16.524-9.213
			C441.745,102.031,451.092,92.684,446.901,81.269z"/>
	</g>
</g>
</svg>